<svg width="198" height="15" viewBox="0 0 198 15" fill="none" xmlns="http://www.w3.org/2000/svg">
<path d="M193.398 14.7201C191.066 14.7201 189.13 13.6421 188.492 11.9261L189.438 10.8701C189.944 12.4981 191.374 13.4441 193.332 13.4441C194.938 13.4441 196.236 12.7621 196.236 11.8161C196.236 11.0241 195.378 10.4521 193.156 10.0341C190.318 9.46208 188.976 8.53808 188.976 6.99808C188.976 5.17208 190.802 3.83008 193.288 3.83008C195.356 3.83008 197.094 4.79808 197.754 6.31608L196.852 7.24008C196.104 5.74408 194.938 5.12808 193.31 5.12808C191.704 5.12808 190.648 5.74408 190.648 6.64608C190.648 7.43808 191.418 7.92208 193.684 8.36208C196.522 8.89008 197.864 9.94608 197.864 11.5521C197.864 13.4221 196.016 14.7201 193.398 14.7201Z" fill="#222222"/>
<path d="M173.252 9.11059C173.252 11.8386 174.572 13.4226 176.596 13.4226C178.092 13.4226 179.236 12.5646 179.786 10.9366L180.82 11.7066C180.094 13.6206 178.532 14.7206 176.442 14.7206C173.406 14.7206 171.25 12.4546 171.25 9.26459C171.25 6.14059 173.34 3.80859 176.2 3.80859C178.884 3.80859 180.864 5.76659 180.864 9.00059H173.252V9.11059ZM173.318 7.79059H178.818C178.642 6.00859 177.718 5.04059 176.2 5.04059C174.682 5.04059 173.582 6.09659 173.318 7.79059Z" fill="#222222"/>
<path d="M158.146 14.4993L153.812 4.02734H155.814L159.181 12.4313L162.701 4.02734H164.285L159.84 14.4993H158.146Z" fill="#222222"/>
<path d="M138.951 9.11059C138.951 11.8386 140.271 13.4226 142.295 13.4226C143.791 13.4226 144.935 12.5646 145.485 10.9366L146.519 11.7066C145.793 13.6206 144.231 14.7206 142.141 14.7206C139.105 14.7206 136.949 12.4546 136.949 9.26459C136.949 6.14059 139.039 3.80859 141.899 3.80859C144.583 3.80859 146.563 5.76659 146.563 9.00059H138.951V9.11059ZM139.017 7.79059H144.517C144.341 6.00859 143.417 5.04059 141.899 5.04059C140.381 5.04059 139.281 6.09659 139.017 7.79059Z" fill="#222222"/>
<path d="M126.024 14.6316C123.626 14.6316 122.328 13.2456 122.328 10.6716V5.30363H119.16V4.02763H122.372L123.032 0.265625H124.132V4.02763H129.346V5.30363H124.132V10.7156C124.132 12.5196 124.77 13.3556 126.222 13.3556C127.652 13.3556 128.444 12.3656 128.774 10.2096L129.918 10.8476C129.522 13.3556 128.224 14.6316 126.024 14.6316Z" fill="#222222"/>
<path d="M107.64 14.7201C105.308 14.7201 103.372 13.6421 102.734 11.9261L103.68 10.8701C104.186 12.4981 105.616 13.4441 107.574 13.4441C109.18 13.4441 110.478 12.7621 110.478 11.8161C110.478 11.0241 109.62 10.4521 107.398 10.0341C104.56 9.46208 103.218 8.53808 103.218 6.99808C103.218 5.17208 105.044 3.83008 107.53 3.83008C109.598 3.83008 111.336 4.79808 111.996 6.31608L111.094 7.24008C110.346 5.74408 109.18 5.12808 107.552 5.12808C105.946 5.12808 104.89 5.74408 104.89 6.64608C104.89 7.43808 105.66 7.92208 107.926 8.36208C110.764 8.89008 112.106 9.94608 112.106 11.5521C112.106 13.4221 110.258 14.7201 107.64 14.7201Z" fill="#222222"/>
<path d="M86.2656 14.4994V0.859375H94.9776V2.13537H88.1356V6.77738H94.2296V8.05338H88.1356V13.2234H95.1976V14.4994H86.2656Z" fill="#222222"/>
<path d="M53.1934 9.11059C53.1934 11.8386 54.5134 13.4226 56.5374 13.4226C58.0334 13.4226 59.1774 12.5646 59.7274 10.9366L60.7614 11.7066C60.0354 13.6206 58.4734 14.7206 56.3834 14.7206C53.3474 14.7206 51.1914 12.4546 51.1914 9.26459C51.1914 6.14059 53.2814 3.80859 56.1414 3.80859C58.8254 3.80859 60.8054 5.76659 60.8054 9.00059H53.1934V9.11059ZM53.2594 7.79059H58.7594C58.5834 6.00859 57.6594 5.04059 56.1414 5.04059C54.6234 5.04059 53.5234 6.09659 53.2594 7.79059Z" fill="#222222"/>
<path d="M40.2663 14.6316C37.8683 14.6316 36.5703 13.2456 36.5703 10.6716V5.30363H33.4023V4.02763H36.6143L37.2743 0.265625H38.3743V4.02763H43.5883V5.30363H38.3743V10.7156C38.3743 12.5196 39.0123 13.3556 40.4643 13.3556C41.8943 13.3556 42.6863 12.3656 43.0163 10.2096L44.1603 10.8476C43.7643 13.3556 42.4663 14.6316 40.2663 14.6316Z" fill="#222222"/>
<path d="M18.8926 9.11059C18.8926 11.8386 20.2126 13.4226 22.2366 13.4226C23.7326 13.4226 24.8766 12.5646 25.4266 10.9366L26.4606 11.7066C25.7346 13.6206 24.1726 14.7206 22.0826 14.7206C19.0466 14.7206 16.8906 12.4546 16.8906 9.26459C16.8906 6.14059 18.9806 3.80859 21.8406 3.80859C24.5246 3.80859 26.5046 5.76659 26.5046 9.00059H18.8926V9.11059ZM18.9586 7.79059H24.4586C24.2826 6.00859 23.3586 5.04059 21.8406 5.04059C20.3226 5.04059 19.2226 6.09659 18.9586 7.79059Z" fill="#222222"/>
<path d="M0.265625 14.4994V0.859375H4.24762C7.08563 0.859375 8.80163 2.31137 8.80163 4.24737C8.80163 5.98537 7.48163 6.99737 6.13963 7.19537C8.18563 7.41537 9.65963 8.80138 9.65963 10.7154C9.65963 12.6074 8.20763 14.4994 4.29163 14.4994H0.265625ZM2.11363 13.2454H4.29163C6.75563 13.2454 7.70163 12.2774 7.70163 10.6274C7.70163 9.06537 6.86563 7.96537 4.29163 7.96537H2.11363V13.2454ZM2.11363 6.71138H4.22563C6.20563 6.71138 6.93162 5.83137 6.93162 4.31337C6.93162 2.99338 6.27163 2.11337 4.20362 2.11337H2.11363V6.71138Z" fill="#222222"/>
</svg>
